<mxfile host="app.diagrams.net" agent="Mozilla/5.0 (Windows NT 10.0; Win64; x64) AppleWebKit/537.36 (KHTML, like Gecko) Chrome/130.0.0.0 Safari/537.36 Edg/130.0.0.0" version="24.8.1">
  <diagram name="P치gina-1" id="giZ5Y6QYd9xcURcPFQVY">
    <mxGraphModel dx="1426" dy="789" grid="1" gridSize="10" guides="1" tooltips="1" connect="1" arrows="1" fold="1" page="1" pageScale="1" pageWidth="1600" pageHeight="1169" math="0" shadow="0">
      <root>
        <mxCell id="0" />
        <mxCell id="1" parent="0" />
        <mxCell id="QRCTrtcb7nfhT2A9gDhv-11" value="" style="rounded=1;whiteSpace=wrap;html=1;" vertex="1" parent="1">
          <mxGeometry x="550" y="70" width="320" height="380" as="geometry" />
        </mxCell>
        <mxCell id="QRCTrtcb7nfhT2A9gDhv-2" value="Iniciar Sesi칩n" style="ellipse;whiteSpace=wrap;html=1;" vertex="1" parent="1">
          <mxGeometry x="640" y="160" width="140" height="50" as="geometry" />
        </mxCell>
        <mxCell id="QRCTrtcb7nfhT2A9gDhv-3" value="Sistema de Calificaciones AJS" style="text;align=center;fontStyle=1;verticalAlign=middle;spacingLeft=3;spacingRight=3;strokeColor=none;rotatable=0;points=[[0,0.5],[1,0.5]];portConstraint=eastwest;html=1;" vertex="1" parent="1">
          <mxGeometry x="670" y="100" width="80" height="26" as="geometry" />
        </mxCell>
        <mxCell id="QRCTrtcb7nfhT2A9gDhv-4" value="Administrador" style="shape=umlActor;verticalLabelPosition=bottom;verticalAlign=top;html=1;" vertex="1" parent="1">
          <mxGeometry x="430" y="245" width="30" height="60" as="geometry" />
        </mxCell>
        <mxCell id="QRCTrtcb7nfhT2A9gDhv-8" value="Modificar Cuentas de Usuario" style="ellipse;whiteSpace=wrap;html=1;" vertex="1" parent="1">
          <mxGeometry x="640" y="240" width="140" height="70" as="geometry" />
        </mxCell>
        <mxCell id="QRCTrtcb7nfhT2A9gDhv-9" value="Modificar Roles" style="ellipse;whiteSpace=wrap;html=1;" vertex="1" parent="1">
          <mxGeometry x="640" y="350" width="140" height="50" as="geometry" />
        </mxCell>
        <mxCell id="QRCTrtcb7nfhT2A9gDhv-19" value="" style="curved=1;endArrow=classic;html=1;rounded=0;entryX=0;entryY=0.5;entryDx=0;entryDy=0;" edge="1" parent="1" target="QRCTrtcb7nfhT2A9gDhv-2">
          <mxGeometry width="50" height="50" relative="1" as="geometry">
            <mxPoint x="460" y="230" as="sourcePoint" />
            <mxPoint x="520" y="170" as="targetPoint" />
            <Array as="points">
              <mxPoint x="470" y="170" />
            </Array>
          </mxGeometry>
        </mxCell>
        <mxCell id="QRCTrtcb7nfhT2A9gDhv-20" value="" style="curved=1;endArrow=classic;html=1;rounded=0;entryX=0;entryY=0.5;entryDx=0;entryDy=0;" edge="1" parent="1" target="QRCTrtcb7nfhT2A9gDhv-8">
          <mxGeometry width="50" height="50" relative="1" as="geometry">
            <mxPoint x="470" y="270" as="sourcePoint" />
            <mxPoint x="620" y="275" as="targetPoint" />
            <Array as="points">
              <mxPoint x="450" y="260" />
            </Array>
          </mxGeometry>
        </mxCell>
        <mxCell id="QRCTrtcb7nfhT2A9gDhv-21" value="" style="curved=1;endArrow=classic;html=1;rounded=0;entryX=0.029;entryY=0.38;entryDx=0;entryDy=0;entryPerimeter=0;" edge="1" parent="1" target="QRCTrtcb7nfhT2A9gDhv-9">
          <mxGeometry width="50" height="50" relative="1" as="geometry">
            <mxPoint x="470" y="330" as="sourcePoint" />
            <mxPoint x="620" y="360" as="targetPoint" />
            <Array as="points">
              <mxPoint x="450" y="345" />
            </Array>
          </mxGeometry>
        </mxCell>
        <mxCell id="QRCTrtcb7nfhT2A9gDhv-22" value="" style="rounded=1;whiteSpace=wrap;html=1;" vertex="1" parent="1">
          <mxGeometry x="220" y="490" width="480" height="500" as="geometry" />
        </mxCell>
        <mxCell id="QRCTrtcb7nfhT2A9gDhv-23" value="Iniciar Sesi칩n" style="ellipse;whiteSpace=wrap;html=1;" vertex="1" parent="1">
          <mxGeometry x="310" y="580" width="140" height="50" as="geometry" />
        </mxCell>
        <mxCell id="QRCTrtcb7nfhT2A9gDhv-24" value="Sistema de Calificaciones AJS" style="text;align=center;fontStyle=1;verticalAlign=middle;spacingLeft=3;spacingRight=3;strokeColor=none;rotatable=0;points=[[0,0.5],[1,0.5]];portConstraint=eastwest;html=1;" vertex="1" parent="1">
          <mxGeometry x="430" y="520" width="80" height="26" as="geometry" />
        </mxCell>
        <mxCell id="QRCTrtcb7nfhT2A9gDhv-25" value="Profesor" style="shape=umlActor;verticalLabelPosition=bottom;verticalAlign=top;html=1;" vertex="1" parent="1">
          <mxGeometry x="100" y="665" width="30" height="60" as="geometry" />
        </mxCell>
        <mxCell id="QRCTrtcb7nfhT2A9gDhv-26" value="Ver Mis Calificaciones" style="ellipse;whiteSpace=wrap;html=1;" vertex="1" parent="1">
          <mxGeometry x="310" y="660" width="140" height="70" as="geometry" />
        </mxCell>
        <mxCell id="QRCTrtcb7nfhT2A9gDhv-34" value="&amp;lt;&amp;lt;Extend&amp;gt;&amp;gt;" style="rounded=0;orthogonalLoop=1;jettySize=auto;html=1;exitX=1;exitY=0.5;exitDx=0;exitDy=0;entryX=0;entryY=0;entryDx=0;entryDy=0;" edge="1" parent="1" source="QRCTrtcb7nfhT2A9gDhv-27" target="QRCTrtcb7nfhT2A9gDhv-33">
          <mxGeometry relative="1" as="geometry" />
        </mxCell>
        <mxCell id="QRCTrtcb7nfhT2A9gDhv-27" value="Generar Reporte" style="ellipse;whiteSpace=wrap;html=1;" vertex="1" parent="1">
          <mxGeometry x="310" y="770" width="140" height="50" as="geometry" />
        </mxCell>
        <mxCell id="QRCTrtcb7nfhT2A9gDhv-30" value="" style="curved=1;endArrow=classic;html=1;rounded=0;entryX=0;entryY=0.5;entryDx=0;entryDy=0;" edge="1" parent="1" target="QRCTrtcb7nfhT2A9gDhv-23">
          <mxGeometry width="50" height="50" relative="1" as="geometry">
            <mxPoint x="130" y="650" as="sourcePoint" />
            <mxPoint x="190" y="590" as="targetPoint" />
            <Array as="points">
              <mxPoint x="140" y="590" />
            </Array>
          </mxGeometry>
        </mxCell>
        <mxCell id="QRCTrtcb7nfhT2A9gDhv-31" value="" style="curved=1;endArrow=classic;html=1;rounded=0;entryX=0;entryY=0.5;entryDx=0;entryDy=0;" edge="1" parent="1" target="QRCTrtcb7nfhT2A9gDhv-26">
          <mxGeometry width="50" height="50" relative="1" as="geometry">
            <mxPoint x="140" y="690" as="sourcePoint" />
            <mxPoint x="290" y="695" as="targetPoint" />
            <Array as="points">
              <mxPoint x="120" y="680" />
            </Array>
          </mxGeometry>
        </mxCell>
        <mxCell id="QRCTrtcb7nfhT2A9gDhv-32" value="" style="curved=1;endArrow=classic;html=1;rounded=0;entryX=0.029;entryY=0.38;entryDx=0;entryDy=0;entryPerimeter=0;" edge="1" parent="1" target="QRCTrtcb7nfhT2A9gDhv-27">
          <mxGeometry width="50" height="50" relative="1" as="geometry">
            <mxPoint x="140" y="750" as="sourcePoint" />
            <mxPoint x="290" y="780" as="targetPoint" />
            <Array as="points">
              <mxPoint x="120" y="765" />
            </Array>
          </mxGeometry>
        </mxCell>
        <mxCell id="QRCTrtcb7nfhT2A9gDhv-33" value="Notificar a Padre de Familia" style="ellipse;whiteSpace=wrap;html=1;" vertex="1" parent="1">
          <mxGeometry x="510" y="810" width="140" height="50" as="geometry" />
        </mxCell>
        <mxCell id="QRCTrtcb7nfhT2A9gDhv-35" value="" style="rounded=1;whiteSpace=wrap;html=1;" vertex="1" parent="1">
          <mxGeometry x="950" y="505" width="320" height="380" as="geometry" />
        </mxCell>
        <mxCell id="QRCTrtcb7nfhT2A9gDhv-36" value="Iniciar Sesi칩n" style="ellipse;whiteSpace=wrap;html=1;" vertex="1" parent="1">
          <mxGeometry x="1040" y="595" width="140" height="50" as="geometry" />
        </mxCell>
        <mxCell id="QRCTrtcb7nfhT2A9gDhv-37" value="Sistema de Calificaciones AJS" style="text;align=center;fontStyle=1;verticalAlign=middle;spacingLeft=3;spacingRight=3;strokeColor=none;rotatable=0;points=[[0,0.5],[1,0.5]];portConstraint=eastwest;html=1;" vertex="1" parent="1">
          <mxGeometry x="1070" y="535" width="80" height="26" as="geometry" />
        </mxCell>
        <mxCell id="QRCTrtcb7nfhT2A9gDhv-38" value="Apoderado" style="shape=umlActor;verticalLabelPosition=bottom;verticalAlign=top;html=1;" vertex="1" parent="1">
          <mxGeometry x="830" y="680" width="30" height="60" as="geometry" />
        </mxCell>
        <mxCell id="QRCTrtcb7nfhT2A9gDhv-39" value="Ver Calificaciones de mi(s) hijo(s)" style="ellipse;whiteSpace=wrap;html=1;" vertex="1" parent="1">
          <mxGeometry x="1040" y="675" width="140" height="70" as="geometry" />
        </mxCell>
        <mxCell id="QRCTrtcb7nfhT2A9gDhv-40" value="Enviar Mensajes" style="ellipse;whiteSpace=wrap;html=1;" vertex="1" parent="1">
          <mxGeometry x="1040" y="785" width="140" height="50" as="geometry" />
        </mxCell>
        <mxCell id="QRCTrtcb7nfhT2A9gDhv-41" value="" style="curved=1;endArrow=classic;html=1;rounded=0;entryX=0;entryY=0.5;entryDx=0;entryDy=0;" edge="1" parent="1" target="QRCTrtcb7nfhT2A9gDhv-36">
          <mxGeometry width="50" height="50" relative="1" as="geometry">
            <mxPoint x="860" y="665" as="sourcePoint" />
            <mxPoint x="920" y="605" as="targetPoint" />
            <Array as="points">
              <mxPoint x="870" y="605" />
            </Array>
          </mxGeometry>
        </mxCell>
        <mxCell id="QRCTrtcb7nfhT2A9gDhv-42" value="" style="curved=1;endArrow=classic;html=1;rounded=0;entryX=0;entryY=0.5;entryDx=0;entryDy=0;" edge="1" parent="1" target="QRCTrtcb7nfhT2A9gDhv-39">
          <mxGeometry width="50" height="50" relative="1" as="geometry">
            <mxPoint x="870" y="705" as="sourcePoint" />
            <mxPoint x="1020" y="710" as="targetPoint" />
            <Array as="points">
              <mxPoint x="850" y="695" />
            </Array>
          </mxGeometry>
        </mxCell>
        <mxCell id="QRCTrtcb7nfhT2A9gDhv-43" value="" style="curved=1;endArrow=classic;html=1;rounded=0;entryX=0.029;entryY=0.38;entryDx=0;entryDy=0;entryPerimeter=0;" edge="1" parent="1" target="QRCTrtcb7nfhT2A9gDhv-40">
          <mxGeometry width="50" height="50" relative="1" as="geometry">
            <mxPoint x="870" y="765" as="sourcePoint" />
            <mxPoint x="1020" y="795" as="targetPoint" />
            <Array as="points">
              <mxPoint x="850" y="780" />
            </Array>
          </mxGeometry>
        </mxCell>
        <mxCell id="QRCTrtcb7nfhT2A9gDhv-44" value="Enviar Mensajes" style="ellipse;whiteSpace=wrap;html=1;" vertex="1" parent="1">
          <mxGeometry x="375" y="900" width="140" height="50" as="geometry" />
        </mxCell>
        <mxCell id="QRCTrtcb7nfhT2A9gDhv-45" value="" style="curved=1;endArrow=classic;html=1;rounded=0;entryX=0;entryY=0.5;entryDx=0;entryDy=0;" edge="1" parent="1" target="QRCTrtcb7nfhT2A9gDhv-44">
          <mxGeometry width="50" height="50" relative="1" as="geometry">
            <mxPoint x="120" y="771" as="sourcePoint" />
            <mxPoint x="140" y="950" as="targetPoint" />
            <Array as="points">
              <mxPoint x="100" y="786" />
            </Array>
          </mxGeometry>
        </mxCell>
      </root>
    </mxGraphModel>
  </diagram>
</mxfile>
